# xmcd CD database file
#
# Track frame offsets:
#	150
#	13176
#	26943
#	46905
#	61197
#	79187
#	90029
#	104847
#	118377
#	123751
#	132373
#	157494
#
# Disc length: 2444 seconds
#
# Revision: 2
# Processed by: cddbd v1.5.2PL0 Copyright (c) Steve Scherf et al.
# Submitted via: CDex 1.70beta2
#
DISCID=a4098a0c
DTITLE=Love of Lesbian - Maniobras de escapismo
DYEAR=2005
DGENRE=Pop
TTITLE0=Carta a todas tus catástrofes
TTITLE1=Maniobras de escapismo
TTITLE2=Domingo astromántico
TTITLE3=Mi personalidad
TTITLE4=Houston, tenemos un poema
TTITLE5=Mi primera combustión
TTITLE6=Música de ascensores
TTITLE7=Marlene, la vecina del ártico
TTITLE8=Los niños del mañana
TTITLE9=Me llaman octubre
TTITLE10=Limousinas
TTITLE11=Mon petit cabroin
EXTD=YEAR: 2005
EXTT0=
EXTT1=
EXTT2=
EXTT3=
EXTT4=
EXTT5=
EXTT6=
EXTT7=
EXTT8=
EXTT9=
EXTT10=
EXTT11=
PLAYORDER=
